<?xml version="1.0" encoding="utf-8"?>
<!-- Generator: Adobe Illustrator 15.1.0, SVG Export Plug-In . SVG Version: 6.00 Build 0)  -->
<!DOCTYPE svg PUBLIC "-//W3C//DTD SVG 1.1//EN" "http://www.w3.org/Graphics/SVG/1.1/DTD/svg11.dtd">
<svg version="1.1" id="Layer_1" xmlns="http://www.w3.org/2000/svg" xmlns:xlink="http://www.w3.org/1999/xlink" x="0px" y="0px"
	 width="128px" height="128px" viewBox="0 0 128 128" enable-background="new 0 0 128 128" xml:space="preserve">
<g>
	<circle fill="#C2D5D8" cx="64" cy="64" r="64"/>
	<g>
		<g>
			<g>
				<defs>
					<circle id="SVGID_1_" cx="64" cy="64" r="64"/>
				</defs>
				<clipPath id="SVGID_2_">
					<use xlink:href="#SVGID_1_"  overflow="visible"/>
				</clipPath>
				<g clip-path="url(#SVGID_2_)">
					<path fill="#45998B" d="M64,24.763c-12.069,0-37.878,11.97-37.878,35.259c0,23.287,18.747,27.19,20.03,34.865
						c-1.413,8.459-5.778,50.353,17.848,50.353s19.259-41.894,17.85-50.353c1.281-7.675,20.028-11.578,20.028-34.865
						C101.878,36.73,76.068,24.763,64,24.763z"/>
					<path fill="#3F8C7F" d="M64,24.763c-0.478,0-0.981,0.025-1.5,0.063c12.576,0.908,36.378,12.827,36.378,35.194
						c0,23.289-18.747,27.191-20.028,34.866c1.379,8.273,5.584,48.534-16.35,50.285c0.488,0.039,0.985,0.063,1.5,0.063
						c23.626,0,19.259-41.893,17.85-50.351c1.281-7.675,20.028-11.577,20.028-34.866C101.878,36.73,76.068,24.763,64,24.763z"/>
					<path fill="#3F8C7F" d="M66,25.763c-8.218,0-23.626,4.164-23.626,19.516c0,15.354,12.455,19.386,14.253,20.427
						c1.797,1.041,7.832,0,9.373,0c1.54,0,7.576,1.041,9.373,0c1.798-1.041,14.253-5.073,14.253-20.427
						C89.626,29.927,74.218,25.763,66,25.763z"/>
					<path fill="#3A8074" d="M81.848,94.887c-2.313-8.585-3.082-31.094-2.566-36.297H64H48.72
						c0.516,5.203-0.256,27.712-2.566,36.297c-2.312,8.588-7.189,50.353,17.848,50.353S84.158,103.475,81.848,94.887z"/>
					<path fill="#70CCBD" d="M64,126.186c6.604,0,15.561-1.822,19.456-5.197c-0.093,0.91-0.207,1.814-0.34,2.717
						c-4.755,2.947-12.793,4.48-19.116,4.48c-6.323,0-14.362-1.533-19.116-4.48c-0.133-0.9-0.247-1.807-0.34-2.717
						C48.441,124.361,57.397,126.186,64,126.186z M64,118.673c-6.912,0-15.786-1.72-19.825-5c0.003,0.823,0.021,1.653,0.047,2.489
						c4.928,3.087,13.353,4.511,19.778,4.511s14.854-1.424,19.777-4.511c0.027-0.836,0.045-1.666,0.048-2.489
						C79.786,116.953,70.912,118.673,64,118.673z M50.375,138.643c0.874,1.158,1.862,2.194,2.975,3.088
						c3.57,0.971,7.417,1.479,10.65,1.479c3.234,0,7.08-0.508,10.65-1.479c1.111-0.894,2.101-1.93,2.975-3.088
						c-4.105,1.642-9.383,2.564-13.625,2.564S54.482,140.282,50.375,138.643z M83.719,109.033c-0.035-0.768-0.08-1.52-0.136-2.251
						c-4.373,2.876-12.856,4.38-19.583,4.38c-6.726,0-15.21-1.504-19.583-4.38c-0.054,0.733-0.099,1.483-0.136,2.251
						c5.06,2.82,13.327,4.129,19.719,4.129C70.391,113.162,78.659,111.854,83.719,109.033z M46.007,129.164
						c0.266,0.975,0.563,1.927,0.896,2.852c4.733,2.42,11.596,3.682,17.098,3.682s12.362-1.262,17.099-3.682
						c0.334-0.925,0.631-1.877,0.896-2.852c-4.202,2.947-12.09,4.531-17.993,4.531C58.1,133.695,50.209,132.111,46.007,129.164z
						 M79.913,81.35c-0.056-0.67-0.106-1.344-0.158-2.021C74.859,80.607,68.859,81.117,64,81.117c-4.86,0-10.861-0.51-15.755-1.788
						c-0.05,0.677-0.104,1.351-0.158,2.021c4.958,1.256,10.851,1.77,15.913,1.77C69.063,83.118,74.955,82.605,79.913,81.35z
						 M79.43,74.077c-0.035-0.688-0.066-1.364-0.096-2.035c-4.84,1.11-10.604,1.563-15.334,1.563c-4.73,0-10.494-0.453-15.334-1.563
						c-0.028,0.671-0.06,1.349-0.095,2.035C53.44,75.162,59.093,75.605,64,75.605S74.561,75.162,79.43,74.077z M83.134,102.141
						c-0.09-0.729-0.184-1.428-0.28-2.086c-4.791,2.455-12.67,3.598-18.854,3.598c-6.182,0-14.061-1.143-18.853-3.598
						c-0.099,0.658-0.191,1.355-0.281,2.086c5.136,2.404,12.79,3.512,19.134,3.512C70.344,105.652,77.998,104.545,83.134,102.141z
						 M80.667,88.482c-0.087-0.652-0.171-1.323-0.251-2.015C75.618,87.941,69.384,88.627,64,88.627s-11.618-0.688-16.416-2.157
						c-0.08,0.688-0.164,1.359-0.251,2.013c5.178,1.533,11.564,2.146,16.667,2.146C69.104,90.628,75.488,90.018,80.667,88.482z
						 M81.967,95.354c-0.04-0.164-0.08-0.319-0.117-0.467c-0.123-0.453-0.24-0.955-0.354-1.48C76.586,95.27,69.622,96.141,64,96.141
						s-12.587-0.871-17.495-2.734c-0.112,0.525-0.229,1.027-0.353,1.48c-0.039,0.146-0.079,0.303-0.119,0.467
						c5.136,1.902,12.085,2.787,17.967,2.787C69.881,98.141,76.83,97.256,81.967,95.354z"/>
					<path fill="#347368" d="M81.848,94.887c-2.313-8.585-3.082-31.094-2.566-36.297h-3c-0.516,5.203,0.256,27.712,2.566,36.297
						c2.264,8.412,6.984,48.646-16.349,50.293c0.489,0.033,0.986,0.06,1.5,0.06C89.037,145.236,84.158,103.475,81.848,94.887z"/>
					<g>
						<path fill="#69BFB1" d="M77.506,87.221c0.084,0.686,0.171,1.348,0.264,1.99c0.992-0.218,1.969-0.453,2.897-0.729
							c-0.002-0.019-0.004-0.035-0.007-0.053c-0.082-0.621-0.162-1.258-0.237-1.91c-0.002-0.018-0.005-0.033-0.007-0.052
							C79.497,86.752,78.516,86.996,77.506,87.221z"/>
						<path fill="#69BFB1" d="M76.805,79.977c0.053,0.674,0.104,1.344,0.162,2.008c1.008-0.188,1.997-0.395,2.946-0.635
							c-0.001-0.012-0.002-0.021-0.002-0.031c-0.056-0.646-0.104-1.295-0.153-1.947c-0.001-0.016-0.002-0.027-0.003-0.041
							C78.811,79.575,77.814,79.785,76.805,79.977z"/>
						<path fill="#69BFB1" d="M76.459,74.641c1.012-0.166,2.009-0.35,2.971-0.563c-0.004-0.06-0.006-0.114-0.009-0.173
							c-0.03-0.625-0.062-1.244-0.087-1.856c0-0.002,0-0.004,0-0.006c-0.958,0.22-1.959,0.407-2.977,0.577
							C76.391,73.285,76.423,73.96,76.459,74.641z"/>
						<path fill="#69BFB1" d="M80.792,115.484c-0.021,0.738-0.048,1.48-0.089,2.228c1.122-0.46,2.158-0.976,3.074-1.55
							c0-0.012,0-0.023,0.002-0.035c0.025-0.814,0.041-1.623,0.046-2.426c0-0.01,0-0.02,0-0.028
							C82.999,114.344,81.964,114.945,80.792,115.484z"/>
						<path fill="#69BFB1" d="M80.018,101.242c0.086,0.646,0.168,1.324,0.242,2.025c1.02-0.34,1.985-0.713,2.873-1.129
							c0-0.004-0.001-0.007-0.001-0.01c-0.088-0.71-0.179-1.39-0.272-2.031c-0.002-0.016-0.004-0.029-0.006-0.045
							C81.997,100.493,81.041,100.887,80.018,101.242z"/>
						<path fill="#69BFB1" d="M76.203,140.309c0.015-0.016,0.027-0.029,0.043-0.045c0.486-0.51,0.947-1.05,1.379-1.621
							c-1.279,0.514-2.682,0.944-4.123,1.313c-0.941,1.033-1.996,1.947-3.175,2.706c1.446-0.236,2.907-0.545,4.323-0.931
							C75.198,141.29,75.715,140.814,76.203,140.309z"/>
						<path fill="#69BFB1" d="M81.495,93.404c-0.869,0.33-1.818,0.617-2.797,0.887c0.049,0.202,0.099,0.406,0.147,0.596
							c0.104,0.379,0.211,0.844,0.318,1.346c0.973-0.269,1.921-0.553,2.801-0.879c-0.04-0.164-0.08-0.319-0.119-0.467
							c-0.062-0.229-0.121-0.472-0.182-0.723C81.607,93.92,81.551,93.665,81.495,93.404z"/>
						<path fill="#69BFB1" d="M83.583,106.782c-0.833,0.548-1.815,1.045-2.906,1.491c0.039,0.689,0.069,1.395,0.095,2.106
							c1.063-0.403,2.058-0.853,2.947-1.349C83.682,108.268,83.637,107.516,83.583,106.782z"/>
						<path fill="#69BFB1" d="M83.456,120.986c-0.858,0.744-1.974,1.406-3.245,1.998c-0.105,0.785-0.23,1.563-0.371,2.34
							c1.198-0.482,2.309-1.021,3.276-1.621c0-0.005,0.001-0.01,0.002-0.016C83.25,122.793,83.363,121.893,83.456,120.986z"/>
						<path fill="#69BFB1" d="M78.426,131.037c-0.275,0.847-0.59,1.666-0.926,2.465c1.281-0.436,2.501-0.926,3.6-1.486
							c0.332-0.922,0.629-1.871,0.893-2.843c0.001-0.003,0.002-0.006,0.003-0.009C80.988,129.868,79.771,130.491,78.426,131.037z"/>
					</g>
					<path fill="#347368" d="M79.279,58.59H64H48.72c0.104,1.035,0.153,2.762,0.151,4.921c2.636,1.888,5.04,2.779,5.756,3.193
						c1.797,1.041,7.832,0,9.373,0c1.54,0,7.576,1.041,9.373,0c0.716-0.414,3.12-1.306,5.756-3.193
						C79.127,61.352,79.178,59.625,79.279,58.59z"/>
					<g>
						<path fill="#242424" d="M64,69.75c-0.553,0-1-0.447-1-1v-5.583c0-0.553,0.447-1,1-1c0.553,0,1,0.447,1,1v5.583
							C65,69.303,64.553,69.75,64,69.75z"/>
						<path fill="#242424" d="M68.049,72.917c-0.23,0-0.465-0.08-0.652-0.243L64,69.739l-3.395,2.935
							c-0.419,0.359-1.05,0.315-1.411-0.104c-0.361-0.418-0.315-1.051,0.103-1.41L64,67.095l4.703,4.065
							c0.418,0.359,0.464,0.992,0.104,1.41C68.607,72.8,68.329,72.917,68.049,72.917z"/>
					</g>
					<path fill="#3A8074" d="M64,24.763c-8.218,0-23.626,4.164-23.626,19.516c0,15.354,12.455,19.386,14.253,20.427
						c1.797,1.041,7.832,0,9.373,0c1.54,0,7.576,1.041,9.373,0c1.798-1.041,14.253-5.073,14.253-20.427
						C87.626,28.927,72.218,24.763,64,24.763z"/>
					<path fill="#347368" d="M64,24.763c-0.477,0-0.979,0.017-1.5,0.045c8.455,0.479,22.126,5.011,22.126,19.471
						c0,15.354-12.455,19.386-14.253,20.427c-0.37,0.215-0.926,0.337-1.58,0.401c1.859,0.115,3.713,0.101,4.58-0.401
						c1.798-1.041,14.253-5.073,14.253-20.427C87.626,28.927,72.218,24.763,64,24.763z"/>
					<g>
						<g>
							
								<ellipse transform="matrix(-0.9532 0.3024 -0.3024 -0.9532 108.924 79.7559)" fill="#F5F5F5" cx="48.288" cy="48.31" rx="2.958" ry="4.768"/>
							
								<ellipse transform="matrix(-0.9532 0.3024 -0.3024 -0.9532 108.9033 79.6097)" fill="#242424" cx="48.29" cy="48.234" rx="1.208" ry="3.347"/>
						</g>
						<g>
							
								<ellipse transform="matrix(0.9532 0.3024 -0.3024 0.9532 18.3332 -21.8607)" fill="#F5F5F5" cx="79.77" cy="48.28" rx="2.958" ry="4.768"/>
							
								<ellipse transform="matrix(0.9531 0.3026 -0.3026 0.9531 18.358 -21.8913)" fill="#242424" cx="79.839" cy="48.309" rx="1.208" ry="3.347"/>
						</g>
					</g>
					<g>
						<path fill="#45998B" d="M55.301,36.749c1.979-1.008,2.905-1.475,4.63-1.718l-1.783-5.505
							c-1.743,0.396-3.687,1.006-5.549,1.927L55.301,36.749z"/>
						<path fill="#45998B" d="M51.312,40.414c0.421-0.779,0.97-1.447,1.598-2.026l-2.786-5.46c-1.613,1.147-3.04,2.616-4.07,4.483
							L51.312,40.414z"/>
					</g>
				</g>
			</g>
		</g>
	</g>
</g>
</svg>
